<svg width="15" height="17" viewBox="0 0 15 17" fill="none" xmlns="http://www.w3.org/2000/svg">
<path d="M0.625 3.25C0.625 1.75 1.84375 0.5 3.375 0.5H12.875C13.8125 0.5 14.625 1.3125 14.625 2.25V11.25C14.625 11.9688 14.1875 12.5625 13.625 12.8438V15H13.875C14.2812 15 14.625 15.3438 14.625 15.75C14.625 16.1875 14.2812 16.5 13.875 16.5H3.125C1.71875 16.5 0.625 15.4062 0.625 14C0.625 13.9375 0.625 13.8438 0.625 13.75V3.25ZM3.125 13C2.5625 13 2.125 13.4688 2.125 14C2.125 14.5625 2.5625 15 3.125 15H12.125V13H3.125ZM2.125 11.7188C2.40625 11.5938 2.75 11.5 3.125 11.5H12.875C13 11.5 13.125 11.4062 13.125 11.25V2.25C13.125 2.125 13 2 12.875 2H11.625V6.96875C11.625 7.40625 11.125 7.625 10.8125 7.375L9.125 6L7.4375 7.375C7.09375 7.625 6.625 7.40625 6.625 6.96875V2H3.375C2.65625 2 2.125 2.5625 2.125 3.25V11.7188Z" fill="#696969"/>
</svg>
