<svg width="15" height="17" viewBox="0 0 15 17" fill="none" xmlns="http://www.w3.org/2000/svg">
<path d="M7.125 0.5C7.65625 0.5 8.125 0.96875 8.125 1.5V2.125C10.4062 2.5625 12.125 4.59375 12.125 7V7.8125C12.125 9.21875 12.5938 10.5938 13.4688 11.7188L13.9375 12.2812C14.125 12.5312 14.1562 12.8438 14.0312 13.0938C13.9062 13.3438 13.6562 13.5 13.375 13.5H0.875C0.5625 13.5 0.3125 13.3438 0.1875 13.0938C0.0625 12.8438 0.09375 12.5312 0.28125 12.2812L0.75 11.7188C1.625 10.5938 2.125 9.21875 2.125 7.8125V7C2.125 4.59375 3.84375 2.5625 6.125 2.125V1.5C6.125 0.96875 6.5625 0.5 7.125 0.5ZM7.125 3.5C5.1875 3.5 3.625 5.09375 3.625 7V7.8125C3.625 9.3125 3.1875 10.75 2.375 12H11.8438C11.0312 10.75 10.625 9.3125 10.625 7.8125V7C10.625 5.09375 9.03125 3.5 7.125 3.5ZM9.125 14.5C9.125 15.0312 8.90625 15.5625 8.53125 15.9375C8.15625 16.3125 7.65625 16.5 7.125 16.5C6.59375 16.5 6.0625 16.3125 5.6875 15.9375C5.3125 15.5625 5.125 15.0312 5.125 14.5H7.125H9.125Z" fill="#696969"/>
</svg>
