<svg width="17" height="17" viewBox="0 0 17 17" fill="none" xmlns="http://www.w3.org/2000/svg">
<path d="M12.4062 13.625L9.875 11.0938C9.4375 11.375 8.90625 11.5 8.375 11.5C7.8125 11.5 7.28125 11.375 6.84375 11.0938L4.3125 13.625C5.4375 14.5 6.84375 15 8.375 15C9.875 15 11.2812 14.5 12.4062 13.625ZM14.5312 13.625L14.875 14C15.1875 14.2812 15.1875 14.75 14.875 15.0312C14.5938 15.3438 14.125 15.3438 13.8438 15.0312L13.4688 14.6875C12.0625 15.8125 10.3125 16.5 8.375 16.5C6.40625 16.5 4.65625 15.8125 3.25 14.6875L2.875 15.0312C2.59375 15.3438 2.125 15.3438 1.84375 15.0312C1.53125 14.75 1.53125 14.2812 1.84375 13.9688L2.1875 13.625C1.0625 12.2188 0.375 10.4688 0.375 8.5C0.375 6.5625 1.0625 4.8125 2.1875 3.40625L1.84375 3.03125C1.53125 2.75 1.53125 2.28125 1.84375 1.96875C2.125 1.6875 2.59375 1.6875 2.90625 1.96875L3.25 2.34375C4.65625 1.21875 6.40625 0.5 8.375 0.5C10.3125 0.5 12.0625 1.21875 13.4688 2.34375L13.8438 2C14.125 1.6875 14.5938 1.6875 14.9062 2C15.1875 2.28125 15.1875 2.75 14.9062 3.03125L14.5312 3.40625C15.6562 4.8125 16.375 6.5625 16.375 8.5C16.375 10.4688 15.6562 12.2188 14.5312 13.625ZM13.4688 12.5625C14.3438 11.4375 14.875 10.0312 14.875 8.5C14.875 7 14.3438 5.59375 13.4688 4.46875L10.9375 7C11.2188 7.4375 11.375 7.96875 11.375 8.5C11.375 9.0625 11.2188 9.59375 10.9375 10.0312L13.4688 12.5625ZM12.4062 3.40625C11.2812 2.53125 9.875 2 8.375 2C6.84375 2 5.4375 2.53125 4.3125 3.40625L6.84375 5.9375C7.28125 5.65625 7.8125 5.5 8.34375 5.5C8.90625 5.5 9.4375 5.65625 9.875 5.9375L12.4062 3.40625ZM5.78125 10.0312C5.5 9.59375 5.375 9.0625 5.375 8.53125C5.375 7.96875 5.5 7.4375 5.78125 7L3.25 4.46875C2.375 5.59375 1.875 7 1.875 8.5C1.875 10.0312 2.375 11.4375 3.25 12.5625L5.78125 10.0312ZM6.875 8.5C6.875 9.0625 7.15625 9.53125 7.625 9.8125C8.0625 10.0938 8.65625 10.0938 9.125 9.8125C9.5625 9.53125 9.875 9.0625 9.875 8.5C9.875 7.96875 9.5625 7.5 9.125 7.21875C8.65625 6.9375 8.0625 6.9375 7.625 7.21875C7.15625 7.5 6.875 7.96875 6.875 8.5Z" fill="#696969"/>
</svg>
