<svg width="19" height="17" viewBox="0 0 19 17" fill="none" xmlns="http://www.w3.org/2000/svg">
<path d="M18.8438 8.5C18.8438 9.0625 18.375 9.5 17.8438 9.5H16.8438L16.875 14.5C16.875 14.5938 16.875 14.6875 16.875 14.75V15.2812C16.875 15.9688 16.3125 16.5312 15.625 16.5312H15.125C15.0625 16.5312 15.0312 16.5312 15 16.5C14.9688 16.5312 14.9062 16.5312 14.875 16.5312L13.875 16.5H13.125C12.4062 16.5 11.875 15.9688 11.875 15.25V14.5V12.5C11.875 11.9688 11.4062 11.5 10.875 11.5H8.875C8.3125 11.5 7.875 11.9688 7.875 12.5V14.5V15.25C7.875 15.9688 7.3125 16.5 6.625 16.5H5.875H4.875C4.8125 16.5 4.78125 16.5 4.71875 16.5C4.6875 16.5 4.65625 16.5 4.625 16.5H4.125C3.40625 16.5 2.875 15.9688 2.875 15.25V11.75C2.875 11.75 2.875 11.7188 2.875 11.6875V9.5H1.875C1.3125 9.5 0.875 9.0625 0.875 8.5C0.875 8.21875 0.96875 7.96875 1.1875 7.75L9.1875 0.75C9.40625 0.53125 9.65625 0.5 9.875 0.5C10.0938 0.5 10.3438 0.5625 10.5312 0.71875L18.5 7.75C18.75 7.96875 18.875 8.21875 18.8438 8.5Z" fill="#006B99"/>
</svg>
